# xmcd
#
# Track frame offsets:
#	183
#	14230
#	31210
#	45445
#	80008
#	108805
#	133693
#	155710
#	177575
#	195813
#	216413
#	242918
#	265878
#	292763
#
# Disc length: 4147
#
# Revision: 5
# Processed by: cddbd v1.5.1PL0 Copyright (c) Steve Scherf et al.
# Submitted via: ExactAudioCopy v0.90b4
# Normalized: r4:DSETVAR1
#
DISCID=c410310e
DTITLE=Various Artist - (Almost) Everybody Slides
DYEAR=1993
DGENRE=Blues
TTITLE0=Sonny Landreth - Zydeco Shuffle
TTITLE1=Roy Rodgers - Crawfish City
TTITLE2=Anson Funderburgh - Red Hot Mama
TTITLE3=Danny Gatton - Notcho Blues
TTITLE4=Chris Holzhaus - Long Sad Letters
TTITLE5=Duke Robillard - You're The One That I Adore
TTITLE6=Ronnie Earl - Linda
TTITLE7=Lenny Carlson - Mood Indigo
TTITLE8=Denny Freeman - Blues Island
TTITLE9=Tinsley Ellis and The Heartfixers - Cool On It
TTITLE10=Tom Principato - Congo Square
TTITLE11=Joanna Connor - Doctor feelgood
TTITLE12=Johnny Winter - Going Down Slow
TTITLE13=Michael Bloomfield and Woody Harris - Gonna Need Somebody On My Bond
EXTD=
EXTT0=
EXTT1=
EXTT2=
EXTT3=
EXTT4=
EXTT5=
EXTT6=
EXTT7=
EXTT8=
EXTT9=
EXTT10=
EXTT11=
EXTT12=
EXTT13=
PLAYORDER=
